<svg width="48" height="48" viewBox="0 0 48 48" fill="none" xmlns="http://www.w3.org/2000/svg">
<rect width="48" height="48" rx="8" fill="#006261" fill-opacity="0.15"/>
<path d="M31 14H17C15.346 14 14 15.346 14 17V19.831C14 20.884 14.382 21.841 15 22.577V32C15 32.2652 15.1054 32.5196 15.2929 32.7071C15.4804 32.8946 15.7348 33 16 33H24C24.2652 33 24.5196 32.8946 24.7071 32.7071C24.8946 32.5196 25 32.2652 25 32V27H29V32C29 32.2652 29.1054 32.5196 29.2929 32.7071C29.4804 32.8946 29.7348 33 30 33H32C32.2652 33 32.5196 32.8946 32.7071 32.7071C32.8946 32.5196 33 32.2652 33 32V22.576C33.618 21.841 34 20.884 34 19.83V17C34 15.346 32.654 14 31 14ZM32 17V19.831C32 20.971 31.151 21.943 30.109 21.998L30 22C28.897 22 28 21.103 28 20V16H31C31.552 16 32 16.449 32 17ZM22 20V16H26V20C26 21.103 25.103 22 24 22C22.897 22 22 21.103 22 20ZM16 17C16 16.449 16.448 16 17 16H20V20C20 21.103 19.103 22 18 22L17.891 21.997C16.849 21.943 16 20.971 16 19.831V17ZM22 28H18V25H22V28Z" fill="#006261"/>
</svg>
