<svg width="48" height="48" viewBox="0 0 48 48" fill="none" xmlns="http://www.w3.org/2000/svg">
<rect width="48" height="48" rx="8" fill="#041562" fill-opacity="0.15"/>
<g clip-path="url(#clip0_10_21)">
<path fill-rule="evenodd" clip-rule="evenodd" d="M27.992 15.0129C29.326 14.2359 31 15.1969 31 16.7409V19.9999C31.394 19.9999 31.7841 20.0775 32.148 20.2283C32.512 20.379 32.8427 20.6 33.1213 20.8786C33.3999 21.1572 33.6209 21.4879 33.7716 21.8519C33.9224 22.2158 34 22.606 34 22.9999C34 23.3939 33.9224 23.784 33.7716 24.148C33.6209 24.5119 33.3999 24.8427 33.1213 25.1212C32.8427 25.3998 32.512 25.6208 32.148 25.7716C31.7841 25.9223 31.394 25.9999 31 25.9999V28.9999C31 30.6479 29.119 31.5889 27.8 30.5999L25.74 29.0539C24.6389 28.2283 23.3567 27.677 22 27.4459V30.2899C22.0001 30.9437 21.7639 31.5754 21.3349 32.0687C20.9059 32.562 20.313 32.8836 19.6656 32.9742C19.0182 33.0648 18.3598 32.9183 17.8119 32.5618C17.2639 32.2052 16.8634 31.6626 16.684 31.0339L15.114 25.5379C14.549 24.8707 14.1813 24.0591 14.0523 23.1944C13.9232 22.3297 14.0379 21.4462 14.3835 20.6431C14.729 19.84 15.2917 19.1492 16.0083 18.6483C16.725 18.1475 17.5671 17.8564 18.44 17.8079L21.458 17.6399C22.9346 17.5577 24.3706 17.1263 25.648 16.3809L27.992 15.0129ZM17.634 27.0779L18.607 30.4849C18.6538 30.6498 18.7587 30.7922 18.9024 30.8858C19.046 30.9794 19.2186 31.0179 19.3884 30.9941C19.5582 30.9704 19.7136 30.886 19.8261 30.7565C19.9385 30.6271 20.0002 30.4614 20 30.2899V27.2799L18.44 27.1929C18.1685 27.1779 17.8988 27.1394 17.634 27.0779ZM32 22.9999C32 22.7347 31.8946 22.4803 31.7071 22.2928C31.5196 22.1053 31.2652 21.9999 31 21.9999V23.9999C31.2652 23.9999 31.5196 23.8946 31.7071 23.707C31.8946 23.5195 32 23.2651 32 22.9999Z" fill="#11468F"/>
</g>
<defs>
<clipPath id="clip0_10_21">
<rect width="24" height="24" fill="white" transform="translate(12 12)"/>
</clipPath>
</defs>
</svg>
