<svg width="48" height="48" viewBox="0 0 48 48" fill="none" xmlns="http://www.w3.org/2000/svg">
<rect width="48" height="48" rx="8" fill="#006261" fill-opacity="0.15"/>
<g clip-path="url(#clip0_17_1848)">
<path fill-rule="evenodd" clip-rule="evenodd" d="M27.9921 15.0129C29.3261 14.2359 31.0001 15.1969 31.0001 16.7409V19.9999C31.394 19.9999 31.7841 20.0775 32.1481 20.2283C32.5121 20.379 32.8428 20.6 33.1214 20.8786C33.4 21.1572 33.6209 21.4879 33.7717 21.8519C33.9225 22.2158 34.0001 22.606 34.0001 22.9999C34.0001 23.3939 33.9225 23.784 33.7717 24.148C33.6209 24.5119 33.4 24.8427 33.1214 25.1212C32.8428 25.3998 32.5121 25.6208 32.1481 25.7716C31.7841 25.9223 31.394 25.9999 31.0001 25.9999V28.9999C31.0001 30.6479 29.1191 31.5889 27.8001 30.5999L25.7401 29.0539C24.6389 28.2283 23.3568 27.677 22.0001 27.4459V30.2899C22.0002 30.9437 21.7639 31.5754 21.335 32.0687C20.906 32.562 20.3131 32.8836 19.6657 32.9742C19.0182 33.0648 18.3599 32.9183 17.8119 32.5618C17.264 32.2052 16.8634 31.6626 16.6841 31.0339L15.1141 25.5379C14.5491 24.8707 14.1814 24.0591 14.0523 23.1944C13.9233 22.3297 14.038 21.4462 14.3835 20.6431C14.7291 19.84 15.2918 19.1492 16.0084 18.6483C16.725 18.1475 17.5671 17.8564 18.4401 17.8079L21.4581 17.6399C22.9347 17.5577 24.3707 17.1263 25.6481 16.3809L27.9921 15.0129ZM17.6341 27.0779L18.6071 30.4849C18.6539 30.6498 18.7588 30.7922 18.9024 30.8858C19.0461 30.9794 19.2187 31.0179 19.3885 30.9941C19.5583 30.9704 19.7137 30.886 19.8261 30.7565C19.9385 30.6271 20.0003 30.4614 20.0001 30.2899V27.2799L18.4401 27.1929C18.1686 27.1779 17.8989 27.1394 17.6341 27.0779ZM32.0001 22.9999C32.0001 22.7347 31.8947 22.4803 31.7072 22.2928C31.5196 22.1053 31.2653 21.9999 31.0001 21.9999V23.9999C31.2653 23.9999 31.5196 23.8946 31.7072 23.707C31.8947 23.5195 32.0001 23.2651 32.0001 22.9999Z" fill="#006261"/>
</g>
<defs>
<clipPath id="clip0_17_1848">
<rect width="24" height="24" fill="white" transform="translate(12 12)"/>
</clipPath>
</defs>
</svg>
