<svg width="61" height="60" viewBox="0 0 61 60" fill="none" xmlns="http://www.w3.org/2000/svg">
<path d="M30.0752 59.2729C46.6852 59.2729 60.1504 46.0059 60.1504 29.6401C60.1504 13.2744 46.6852 0.00732422 30.0752 0.00732422C13.4651 0.00732422 0 13.2744 0 29.6401C0 46.0059 13.4651 59.2729 30.0752 59.2729Z" fill="white"/>
<path d="M23.9977 46.7084C38.6878 46.7084 46.7212 34.7192 46.7212 24.3192C46.7212 23.9767 46.7123 23.6387 46.6989 23.3007C48.2584 22.19 49.6128 20.8027 50.6822 19.2267C49.2519 19.8545 47.7103 20.2759 46.0974 20.4647C47.746 19.4901 49.0114 17.9492 49.6084 16.1142C48.0668 17.0141 46.3558 17.6726 44.5379 18.0238C43.081 16.4961 41.0047 15.5391 38.71 15.5391C34.299 15.5391 30.7212 19.0643 30.7212 23.406C30.7212 24.025 30.7925 24.6221 30.9306 25.2016C24.2918 24.8723 18.406 21.7422 14.4717 16.979C13.7855 18.1424 13.389 19.4945 13.389 20.9344C13.389 23.665 14.7969 26.0752 16.9445 27.4844C15.6346 27.4449 14.4049 27.0893 13.3266 26.501C13.3266 26.5317 13.3266 26.5669 13.3266 26.602C13.3266 30.4125 16.0802 33.5953 19.7337 34.3153C19.0609 34.4953 18.3569 34.5919 17.6307 34.5919C17.1183 34.5919 16.6148 34.5436 16.1292 34.4514C17.145 37.5771 20.0946 39.8511 23.5878 39.917C20.8521 42.0286 17.4124 43.2841 13.6697 43.2841C13.0236 43.2841 12.3909 43.249 11.7627 43.1744C15.296 45.4045 19.4931 46.7084 24.0022 46.7084" fill="#006261"/>
</svg>
