<svg width="61" height="60" viewBox="0 0 61 60" fill="none" xmlns="http://www.w3.org/2000/svg">
<path d="M60.7168 29.6401C60.7168 13.274 47.252 0.00732422 30.6416 0.00732422C14.0312 0.00732422 0.566406 13.274 0.566406 29.6401C0.566406 44.4302 11.5628 56.6916 25.941 58.913V38.2051H18.3041V29.6401H25.941V23.1121C25.941 15.6842 30.4322 11.5839 37.3027 11.5839C40.5954 11.5839 44.0351 12.1634 44.0351 12.1634V19.4552H40.2434C36.5096 19.4552 35.3422 21.7381 35.3422 24.0823V29.6401H43.6831L42.3509 38.2051H35.3422V58.913C49.7204 56.6916 60.7168 44.4302 60.7168 29.6401Z" fill="white"/>
<path d="M42.3465 38.2052L43.6787 29.6402H35.3378V24.0824C35.3378 21.7382 36.5007 19.4553 40.239 19.4553H44.0307V12.1635C44.0307 12.1635 40.591 11.584 37.2983 11.584C30.4278 11.584 25.9366 15.6843 25.9366 23.1122V29.6402H18.2997V38.2052H25.9366V58.9131C27.4693 59.1501 29.0376 59.2731 30.6372 59.2731C32.2367 59.2731 33.8051 59.1501 35.3378 58.9131V38.2052H42.3465Z" fill="#006261"/>
</svg>
