<svg width="61" height="60" viewBox="0 0 61 60" fill="none" xmlns="http://www.w3.org/2000/svg">
<path d="M30.9248 59.273C47.5349 59.273 61 46.0059 61 29.6401C61 13.2744 47.5349 0.00732422 30.9248 0.00732422C14.3147 0.00732422 0.849609 13.2744 0.849609 29.6401C0.849609 46.0059 14.3147 59.273 30.9248 59.273Z" fill="white"/>
<path fill-rule="evenodd" clip-rule="evenodd" d="M45.3921 15.7502C41.792 12.1987 36.9978 10.2407 31.8961 10.2407C21.3809 10.2407 12.8218 18.6696 12.8173 29.0301C12.8173 32.3402 13.6951 35.5757 15.3659 38.4248L12.6614 48.1619L22.7756 45.5499C25.5603 47.0469 28.7015 47.8371 31.8917 47.8371H31.9006C42.4158 47.8371 50.9749 39.4082 50.9794 29.0433C50.9794 24.0211 48.9967 19.3018 45.3965 15.7502H45.3921ZM31.8961 44.6631H31.8917C29.0445 44.6631 26.2554 43.908 23.8226 42.4856L23.2434 42.1476L17.2417 43.6973L18.8457 37.9331L18.467 37.3405C16.8808 34.8557 16.0431 31.9802 16.0431 29.0301C16.0431 20.4169 23.1587 13.4103 31.9095 13.4103C36.1468 13.4103 40.1256 15.039 43.1197 17.9892C46.1139 20.9437 47.7625 24.864 47.758 29.0389C47.758 37.6522 40.6424 44.6587 31.9006 44.6587L31.8961 44.6631ZM40.5934 32.9636C40.1167 32.7265 37.773 31.5939 37.3364 31.4359C36.8998 31.2778 36.5834 31.1988 36.2626 31.6729C35.9462 32.1427 35.0329 33.2007 34.7522 33.5124C34.4759 33.8241 34.1952 33.8636 33.7185 33.6309C33.2417 33.3938 31.7045 32.9021 29.8867 31.2998C28.4698 30.053 27.5118 28.5165 27.2356 28.0468C26.9593 27.577 27.2044 27.3224 27.445 27.0897C27.6589 26.879 27.9217 26.541 28.1579 26.2688C28.394 25.9966 28.4742 25.7991 28.6346 25.4874C28.795 25.1757 28.7148 24.8991 28.5945 24.6664C28.4742 24.4294 27.5207 22.1202 27.1242 21.1807C26.7365 20.2632 26.3445 20.3905 26.0504 20.373C25.7742 20.3598 25.4534 20.3554 25.137 20.3554C24.8207 20.3554 24.3038 20.4739 23.8672 20.9437C23.4305 21.4134 22.2008 22.5504 22.2008 24.8596C22.2008 27.1687 23.9073 29.4033 24.1479 29.715C24.384 30.0267 27.5074 34.7723 32.2927 36.8049C33.4289 37.2878 34.32 37.5775 35.0106 37.7927C36.1512 38.1483 37.1938 38.1 38.0136 37.977C38.9315 37.8409 40.834 36.84 41.2306 35.7425C41.6271 34.645 41.6271 33.7055 41.5068 33.508C41.3865 33.3104 41.0702 33.1963 40.5934 32.9592V32.9636Z" fill="#006261"/>
</svg>
