<svg width="61" height="60" viewBox="0 0 61 60" fill="none" xmlns="http://www.w3.org/2000/svg">
<path d="M30.3584 59.273C46.9685 59.273 60.4336 46.0059 60.4336 29.6401C60.4336 13.2744 46.9685 0.00732422 30.3584 0.00732422C13.7483 0.00732422 0.283203 13.2744 0.283203 29.6401C0.283203 46.0059 13.7483 59.273 30.3584 59.273Z" fill="white"/>
<path d="M30.3584 14.3452C35.4155 14.3452 36.0125 14.3628 38.0086 14.4549C39.8532 14.5384 40.8558 14.8413 41.5241 15.0959C42.4063 15.4339 43.039 15.8378 43.7029 16.4919C44.3668 17.146 44.7767 17.765 45.1198 18.6387C45.3782 19.2972 45.6856 20.2849 45.7702 22.1024C45.8594 24.0692 45.8816 24.6618 45.8816 29.6401C45.8816 34.6184 45.8638 35.2111 45.7702 37.1778C45.6856 38.9953 45.3782 39.9831 45.1198 40.6416C44.7767 41.5108 44.3668 42.1342 43.7029 42.7883C43.039 43.4424 42.4108 43.8463 41.5241 44.1843C40.8558 44.439 39.8532 44.7419 38.0086 44.8253C36.0125 44.9131 35.4155 44.935 30.3584 44.935C25.3013 44.935 24.7043 44.9175 22.7082 44.8253C20.8636 44.7419 19.861 44.439 19.1927 44.1843C18.3105 43.8463 17.6778 43.4424 17.0139 42.7883C16.3501 42.1342 15.9401 41.5152 15.5971 40.6416C15.3386 39.9831 15.0312 38.9953 14.9465 37.1778C14.8574 35.2111 14.8351 34.6184 14.8351 29.6401C14.8351 24.6618 14.853 24.0692 14.9465 22.1024C15.0312 20.2849 15.3386 19.2972 15.5971 18.6387C15.9401 17.7694 16.3501 17.146 17.0139 16.4919C17.6778 15.8378 18.306 15.4339 19.1927 15.0959C19.861 14.8413 20.8636 14.5384 22.7082 14.4549C24.7043 14.3671 25.3058 14.3452 30.3584 14.3452ZM30.3584 10.9824C25.2167 10.9824 24.5706 11.0044 22.5522 11.0966C20.5383 11.1888 19.1615 11.5004 17.9541 11.9658C16.7109 12.4443 15.655 13.0809 14.599 14.1169C13.5475 15.153 12.897 16.1934 12.4158 17.4226C11.9479 18.6079 11.6271 19.9645 11.5336 21.9531C11.44 23.9418 11.4177 24.5784 11.4177 29.6445C11.4177 34.7106 11.44 35.3472 11.5336 37.3359C11.6271 39.3202 11.9435 40.6767 12.4158 41.8664C12.9014 43.0912 13.5475 44.1317 14.599 45.1721C15.6505 46.2082 16.7065 46.8491 17.9541 47.3232C19.1571 47.7842 20.5338 48.1003 22.5522 48.1925C24.5706 48.2847 25.2167 48.3066 30.3584 48.3066C35.5001 48.3066 36.1462 48.2847 38.1646 48.1925C40.1785 48.1003 41.5553 47.7886 42.7627 47.3232C44.0058 46.8447 45.0618 46.2082 46.1178 45.1721C47.1693 44.1361 47.8198 43.0956 48.301 41.8664C48.7689 40.6811 49.0897 39.3246 49.1832 37.3359C49.2768 35.3472 49.2991 34.7106 49.2991 29.6445C49.2991 24.5784 49.2768 23.9418 49.1832 21.9531C49.0897 19.9688 48.7733 18.6123 48.301 17.4226C47.8154 16.1978 47.1693 15.1574 46.1178 14.1169C45.0663 13.0809 44.0103 12.4399 42.7627 11.9658C41.5597 11.5048 40.1829 11.1888 38.1646 11.0966C36.1462 11.0044 35.5001 10.9824 30.3584 10.9824Z" fill="#006261"/>
<path d="M30.3584 20.061C24.9895 20.061 20.6364 24.3501 20.6364 29.6401C20.6364 34.9301 24.9895 39.2192 30.3584 39.2192C35.7274 39.2192 40.0805 34.9301 40.0805 29.6401C40.0805 24.3501 35.7274 20.061 30.3584 20.061ZM30.3584 35.8608C26.8742 35.8608 24.0449 33.0775 24.0449 29.6401C24.0449 26.2027 26.8697 23.4194 30.3584 23.4194C33.8472 23.4194 36.672 26.2027 36.672 29.6401C36.672 33.0775 33.8472 35.8608 30.3584 35.8608Z" fill="#006261"/>
<path d="M40.468 21.9183C41.723 21.9183 42.7404 20.9159 42.7404 19.6794C42.7404 18.4428 41.723 17.4404 40.468 17.4404C39.2131 17.4404 38.1957 18.4428 38.1957 19.6794C38.1957 20.9159 39.2131 21.9183 40.468 21.9183Z" fill="#006261"/>
</svg>
