<svg width="17" height="15" viewBox="0 0 17 15" fill="none" xmlns="http://www.w3.org/2000/svg">
<path d="M0.499512 1.50049C0.499512 1.30158 0.578529 1.11081 0.719182 0.970163C0.859834 0.82951 1.0506 0.750493 1.24951 0.750493H5.50251C6.72951 0.750493 7.81951 1.34049 8.50251 2.25149C8.85163 1.78476 9.30493 1.40602 9.82629 1.14542C10.3476 0.884832 10.9227 0.749597 11.5055 0.750493H15.7505C15.9494 0.750493 16.1402 0.82951 16.2808 0.970163C16.4215 1.11081 16.5005 1.30158 16.5005 1.50049V12.0005C16.5005 12.1994 16.4215 12.3902 16.2808 12.5308C16.1402 12.6715 15.9494 12.7505 15.7505 12.7505H11.2435C10.948 12.7505 10.6555 12.8087 10.3825 12.9218C10.1095 13.0348 9.86145 13.2006 9.65251 13.4095L9.03051 14.0305C8.88989 14.1709 8.69926 14.2498 8.50051 14.2498C8.30176 14.2498 8.11114 14.1709 7.97051 14.0305L7.34851 13.4095C7.13958 13.2006 6.89154 13.0348 6.61855 12.9218C6.34557 12.8087 6.05299 12.7505 5.75751 12.7505H1.24951C1.0506 12.7505 0.859834 12.6715 0.719182 12.5308C0.578529 12.3902 0.499512 12.1994 0.499512 12.0005L0.499512 1.50049ZM7.75051 11.8245L7.75451 6.75149L7.75251 4.49849C7.75198 3.9021 7.51469 3.33032 7.0928 2.9088C6.6709 2.48727 6.0989 2.25049 5.50251 2.25049H1.99951V11.2505H5.75651C6.46194 11.2505 7.15306 11.4494 7.75051 11.8245ZM9.25451 4.50049L9.25051 11.8225C9.84764 11.4486 10.538 11.2504 11.2425 11.2505H14.9995V2.25049H11.5045C10.9078 2.25049 10.3355 2.48755 9.91352 2.9095C9.49156 3.33146 9.25451 3.90376 9.25451 4.50049Z" fill="white"/>
</svg>
