<svg width="19" height="11" viewBox="0 0 19 11" fill="none" xmlns="http://www.w3.org/2000/svg">
<path fill-rule="evenodd" clip-rule="evenodd" d="M-2.40413e-07 5.5C-2.47496e-07 5.66205 0.0714872 5.81747 0.198736 5.93206C0.325985 6.04665 0.498571 6.11103 0.678528 6.11103L16.6823 6.11103L12.4116 9.9556C12.2842 10.0703 12.2126 10.2259 12.2126 10.3882C12.2126 10.5505 12.2842 10.7061 12.4116 10.8208C12.539 10.9355 12.7118 11 12.892 11C13.0722 11 13.245 10.9355 13.3724 10.8208L18.8007 5.93261C18.8638 5.87585 18.914 5.80842 18.9482 5.73419C18.9824 5.65995 19 5.58037 19 5.5C19 5.41963 18.9824 5.34005 18.9482 5.26582C18.914 5.19158 18.8638 5.12415 18.8007 5.06739L13.3724 0.179191C13.3093 0.12238 13.2345 0.0773158 13.152 0.0465701C13.0696 0.0158244 12.9813 -2.63088e-07 12.892 -2.66988e-07C12.7119 -2.74864e-07 12.539 0.0644566 12.4116 0.179191C12.2842 0.293925 12.2126 0.449538 12.2126 0.611797C12.2126 0.774056 12.2842 0.929669 12.4116 1.0444L16.6823 4.88898L0.678528 4.88897C0.498571 4.88897 0.325985 4.95335 0.198736 5.06794C0.0714872 5.18253 -2.33329e-07 5.33795 -2.40413e-07 5.5Z" fill="#FA6B02"/>
</svg>
